<?xml version="1.0" ?><!DOCTYPE svg  PUBLIC '-//W3C//DTD SVG 1.1//EN'  'http://www.w3.org/Graphics/SVG/1.1/DTD/svg11.dtd'><svg height="512px" style="enable-background:new -21.5 -21.5 512 512;" version="1.1" viewBox="-21.5 -21.5 512 512" width="512px" xml:space="preserve" xmlns="http://www.w3.org/2000/svg" xmlns:xlink="http://www.w3.org/1999/xlink"><style type="text/css">
<![CDATA[
	.st0{fill:#7BC143;}
	.st1{fill:#B38708;}
	.st2{fill:#876500;}
	.st3{fill:#886D00;}
	.st4{fill:#EC008C;}
	.st5{fill:#EF3E42;}
	.st6{fill:#54B948;}
	.st7{fill:#BBBDBF;}
	.st8{fill:#F15D22;}
	.st9{fill:#F17091;}
	.st10{fill:#231F20;}
	.st11{fill:#F47836;}
	.st12{fill:#F68932;}
	.st13{fill:#F7901E;}
	.st14{fill:#F79239;}
	.st15{fill:#C41230;}
	.st16{fill:#968100;}
	.st17{fill:#FDBB30;}
	.st18{fill:#FFC425;}
	.st19{fill:#FFEA53;}
	.st20{fill:#FFEE00;}
	.st21{fill:#FFF454;}
	.st22{fill:#FFFFFF;}
	.st23{fill-rule:evenodd;clip-rule:evenodd;fill:#231F20;}
	.st24{fill:#6D6E70;}
	.st25{fill:#004990;}
	.st26{fill:#006225;}
	.st27{fill:#0079C1;}
	.st28{fill:#007DC3;}
	.st29{fill:#00853F;}
	.st30{fill:#00A94F;}
	.st31{fill:#00AEEF;}
	.st32{fill:#00B259;}
	.st33{fill:#D0D2D3;}
	.st34{fill:#711471;}
	.st35{fill:#A0CBED;}
	.st36{fill:#A0CE67;}
	.st37{fill:#A30234;}
	.st38{fill:#A6A8AB;}
	.st39{fill:#785200;}
	.st40{fill:#DBC500;}
	.st41{fill:#79BDE8;}
	.st42{fill:#DCCE87;}
	.st43{fill:#A98B45;}
	.st44{fill:#DEB408;}
]]>
</style><defs/><path class="st10" d="M446.8,433c-7.6,0-13.8,6.2-13.8,13.8c0,7.6,6.2,13.8,13.8,13.8s13.8-6.2,13.8-13.8  C460.6,439.2,454.5,433,446.8,433L446.8,433z M166.5,288.8c-7.6,0-13.8,6.2-13.8,13.8c0,7.6,6.2,13.8,13.8,13.8  c7.6,0,13.8-6.2,13.8-13.8C180.3,295,174.1,288.8,166.5,288.8L166.5,288.8z M302.6,288.8c-7.6,0-13.8,6.2-13.8,13.8  c0,7.6,6.2,13.8,13.8,13.8c7.6,0,13.8-6.2,13.8-13.8C316.4,295,310.2,288.8,302.6,288.8L302.6,288.8z M166.5,152.7  c-7.6,0-13.8,6.2-13.8,13.8c0,7.6,6.2,13.8,13.8,13.8c7.6,0,13.8-6.2,13.8-13.8C180.3,158.9,174.1,152.7,166.5,152.7L166.5,152.7z   M302.6,152.7c-7.6,0-13.8,6.2-13.8,13.8c0,7.6,6.2,13.8,13.8,13.8c7.6,0,13.8-6.2,13.8-13.8C316.4,158.9,310.2,152.7,302.6,152.7  L302.6,152.7z M248.3,166.5c0-7.6-6.2-13.8-13.8-13.8c-7.6,0-13.8,6.2-13.8,13.8c0,7.6,6.2,13.8,13.8,13.8  C242.2,180.3,248.3,174.1,248.3,166.5L248.3,166.5z M248.3,302.6c0-7.6-6.2-13.8-13.8-13.8c-7.6,0-13.8,6.2-13.8,13.8  c0,7.6,6.2,13.8,13.8,13.8C242.2,316.3,248.3,310.2,248.3,302.6L248.3,302.6z M166.5,220.7c-7.6,0-13.8,6.2-13.8,13.8  c0,7.6,6.2,13.8,13.8,13.8c7.6,0,13.8-6.2,13.8-13.8C180.3,226.9,174.1,220.7,166.5,220.7L166.5,220.7z M302.6,220.7  c-7.6,0-13.8,6.2-13.8,13.8c0,7.6,6.2,13.8,13.8,13.8c7.6,0,13.8-6.2,13.8-13.8C316.4,226.9,310.2,220.7,302.6,220.7L302.6,220.7z   M388.5,374.7c0-7.6-6.2-13.8-13.8-13.8c-7.6,0-13.8,6.2-13.8,13.8c0,7.6,6.2,13.8,13.8,13.8C382.3,388.5,388.5,382.3,388.5,374.7  L388.5,374.7z M108.2,374.7c0-7.6-6.2-13.8-13.8-13.8c-7.6,0-13.8,6.2-13.8,13.8c0,7.6,6.2,13.8,13.8,13.8  C102,388.5,108.2,382.3,108.2,374.7L108.2,374.7z M248.3,374.7c0-7.6-6.2-13.8-13.8-13.8c-7.6,0-13.8,6.2-13.8,13.8  c0,7.6,6.2,13.8,13.8,13.8C242.2,388.5,248.3,382.3,248.3,374.7L248.3,374.7z M388.5,94.4c0-7.6-6.2-13.8-13.8-13.8  c-7.6,0-13.8,6.2-13.8,13.8c0,7.6,6.2,13.8,13.8,13.8C382.3,108.2,388.5,102,388.5,94.4L388.5,94.4z M108.2,94.4  c0-7.6-6.2-13.8-13.8-13.8c-7.6,0-13.8,6.2-13.8,13.8c0,7.6,6.2,13.8,13.8,13.8C102,108.2,108.2,102,108.2,94.4L108.2,94.4z   M248.3,94.4c0-7.6-6.2-13.8-13.8-13.8c-7.6,0-13.8,6.2-13.8,13.8c0,7.6,6.2,13.8,13.8,13.8C242.2,108.2,248.3,102,248.3,94.4  L248.3,94.4z M94.4,220.7c-7.6,0-13.8,6.2-13.8,13.8c0,7.6,6.2,13.8,13.8,13.8c7.6,0,13.8-6.2,13.8-13.8  C108.2,226.9,102,220.7,94.4,220.7L94.4,220.7z M374.7,220.7c-7.6,0-13.8,6.2-13.8,13.8c0,7.6,6.2,13.8,13.8,13.8  c7.6,0,13.8-6.2,13.8-13.8C388.5,226.9,382.3,220.7,374.7,220.7L374.7,220.7z M234.5,433c-7.6,0-13.8,6.2-13.8,13.8  c0,7.6,6.2,13.8,13.8,13.8c7.6,0,13.8-6.2,13.8-13.8C248.3,439.2,242.2,433,234.5,433L234.5,433z M234.5,8.5  c-7.6,0-13.8,6.2-13.8,13.8S226.9,36,234.5,36c7.6,0,13.8-6.2,13.8-13.8S242.2,8.5,234.5,8.5L234.5,8.5z M446.8,220.7  c-7.6,0-13.8,6.2-13.8,13.8c0,7.6,6.2,13.8,13.8,13.8s13.8-6.2,13.8-13.8C460.6,226.9,454.5,220.7,446.8,220.7L446.8,220.7z   M22.2,220.7c-7.6,0-13.8,6.2-13.8,13.8c0,7.6,6.2,13.8,13.8,13.8S36,242.1,36,234.5C36,226.9,29.9,220.7,22.2,220.7L22.2,220.7z   M22.2,433c-7.6,0-13.8,6.2-13.8,13.8c0,7.6,6.2,13.8,13.8,13.8S36,454.4,36,446.8C36,439.2,29.9,433,22.2,433L22.2,433z M22.2,8.5  c-7.6,0-13.8,6.2-13.8,13.8S14.6,36,22.2,36S36,29.9,36,22.2S29.9,8.5,22.2,8.5L22.2,8.5z M446.8,8.5c-7.6,0-13.8,6.2-13.8,13.8  S439.2,36,446.8,36s13.8-6.2,13.8-13.8S454.5,8.5,446.8,8.5L446.8,8.5z M256.4,451c-2,10.3-11,18-21.8,18c-10.8,0-19.9-7.8-21.8-18  H44.1c-2,10.3-11,18-21.8,18C10,469.1,0,459.1,0,446.8C0,436,7.8,426.9,18,425V256.4c-10.3-2-18-11-18-21.8c0-10.8,7.8-19.9,18-21.8  V44.1c-10.3-2-18-11-18-21.8C0,10,10,0,22.2,0c10.8,0,19.9,7.8,21.8,18h168.6c2-10.3,11-18,21.9-18c10.8,0,19.9,7.8,21.8,18H425  c2-10.3,11-18,21.9-18c12.3,0,22.2,10,22.2,22.2c0,10.8-7.8,19.9-18,21.8v168.6c10.3,2,18,11,18,21.8c0,10.8-7.8,19.9-18,21.8V425  c10.3,2,18,11,18,21.8c0,12.3-10,22.3-22.2,22.3c-10.8,0-19.9-7.8-21.9-18H256.4L256.4,451z M90.1,116.2c-10.3-2-18-11-18-21.8  c0-12.3,10-22.2,22.2-22.2c10.8,0,19.9,7.8,21.8,18h96.5c1.7-8.9,8.7-15.9,17.6-17.6V44.1c-8.9-1.7-15.9-8.7-17.6-17.6H44.1  c-1.7,8.9-8.7,15.9-17.6,17.6v168.6c8.9,1.7,15.9,8.7,17.6,17.6h28.4c1.7-8.9,8.7-15.9,17.6-17.6V116.2L90.1,116.2z M397,94.4  c0,10.8-7.8,19.9-18,21.8v96.5c8.9,1.7,15.9,8.7,17.6,17.6H425c1.7-8.9,8.7-15.9,17.6-17.6V44.1c-8.9-1.7-15.9-8.7-17.6-17.6H256.4  c-1.7,8.9-8.7,15.9-17.6,17.6v28.4c8.9,1.7,15.9,8.7,17.6,17.6h96.5c2-10.3,11-18,21.8-18C387,72.1,397,82.1,397,94.4L397,94.4z   M230.3,396.5c-8.9-1.7-15.9-8.7-17.6-17.6h-96.5c-2,10.3-11,18-21.8,18c-12.3,0-22.2-10-22.2-22.3c0-10.8,7.8-19.9,18-21.8v-96.5  c-8.9-1.7-15.9-8.7-17.6-17.6H44.1c-1.7,8.9-8.7,15.9-17.6,17.6V425c8.9,1.7,15.9,8.7,17.6,17.6h168.6c1.7-8.9,8.7-15.9,17.6-17.6  V396.5L230.3,396.5z M397,374.7c0,12.3-10,22.3-22.2,22.3c-10.8,0-19.9-7.8-21.8-18h-96.5c-1.7,8.9-8.7,15.9-17.6,17.6V425  c8.9,1.7,15.9,8.7,17.6,17.6H425c1.7-8.9,8.7-15.9,17.6-17.6V256.4c-8.9-1.7-15.9-8.7-17.6-17.6h-28.4c-1.7,8.9-8.7,15.9-17.6,17.6  v96.5C389.2,354.8,397,363.8,397,374.7L397,374.7z M230.3,324.4c-8.9-1.7-15.9-8.7-17.6-17.6h-24.3c-2,10.3-11,18-21.8,18  c-12.3,0-22.3-10-22.3-22.3c0-10.8,7.8-19.9,18-21.8v-24.3c-8.9-1.7-15.9-8.7-17.6-17.6h-28.4c-1.7,8.9-8.7,15.9-17.6,17.6v96.5  c8.9,1.7,15.9,8.7,17.6,17.6h96.5c1.7-8.9,8.7-15.9,17.6-17.6V324.4L230.3,324.4z M302.6,144.2c12.3,0,22.2,10,22.2,22.2  c0,10.8-7.8,19.9-18,21.8v24.3c8.9,1.7,15.9,8.7,17.6,17.6h28.4c1.7-8.9,8.7-15.9,17.6-17.6v-96.5c-8.9-1.7-15.9-8.7-17.6-17.6  h-96.5c-1.7,8.9-8.7,15.9-17.6,17.6v28.4c8.9,1.7,15.9,8.7,17.6,17.6h24.3C282.7,152,291.7,144.2,302.6,144.2L302.6,144.2z   M166.5,144.2c10.8,0,19.9,7.8,21.8,18h24.3c1.7-8.9,8.7-15.9,17.6-17.6v-28.4c-8.9-1.7-15.9-8.7-17.6-17.6h-96.5  c-1.7,8.9-8.7,15.9-17.6,17.6v96.5c8.9,1.7,15.9,8.7,17.6,17.6h28.4c1.7-8.9,8.7-15.9,17.6-17.6v-24.3c-10.3-2-18-11-18-21.8  C144.3,154.2,154.2,144.2,166.5,144.2L166.5,144.2z M280.7,298.3c1.7-8.9,8.7-15.9,17.6-17.6v-24.3c-10.3-2-18-11-18-21.8  c0-10.8,7.8-19.9,18-21.8v-24.3c-8.9-1.7-15.9-8.7-17.6-17.6h-24.3c-2,10.3-11,18-21.8,18c-10.8,0-19.9-7.8-21.8-18h-24.3  c-1.7,8.9-8.7,15.9-17.6,17.6v24.3c10.3,2,18,11,18,21.8c0,10.8-7.8,19.9-18,21.8v24.3c8.9,1.7,15.9,8.7,17.6,17.6h24.3  c2-10.3,11-18,21.8-18c10.8,0,19.9,7.8,21.8,18H280.7L280.7,298.3z M306.8,280.7c10.3,2,18,11,18,21.8c0,12.3-10,22.3-22.2,22.3  c-10.8,0-19.9-7.8-21.9-18h-24.3c-1.7,8.9-8.7,15.9-17.6,17.6v28.4c8.9,1.7,15.9,8.7,17.6,17.6h96.5c1.7-8.9,8.7-15.9,17.6-17.6  v-96.5c-8.9-1.7-15.9-8.7-17.6-17.6h-28.4c-1.7,8.9-8.7,15.9-17.6,17.6V280.7L306.8,280.7z"/></svg>